<svg xmlns="http://www.w3.org/2000/svg" version="1.1" xmlns:xlink="http://www.w3.org/1999/xlink" xmlns:svgjs="http://svgjs.dev/svgjs" width="1500" height="1500" viewBox="0 0 1500 1500"><rect width="1500" height="1500" fill="#ffffff"></rect><g transform="matrix(0.6666666666666666,0,0,0.6666666666666666,249.39393939393938,438.5856950067477)"><svg viewBox="0 0 396 247" data-background-color="#ffffff" preserveAspectRatio="xMidYMid meet" height="935" width="1500" xmlns="http://www.w3.org/2000/svg" xmlns:xlink="http://www.w3.org/1999/xlink"><g id="tight-bounds" transform="matrix(1,0,0,1,0.2400000000000091,-0.09999999999999432)"><svg viewBox="0 0 395.52 247.2" height="247.2" width="395.52"><g><svg></svg></g><g><svg viewBox="0 0 395.52 247.2" height="247.2" width="395.52"><g transform="matrix(1,0,0,1,75.54432,88.16298292126697)"><svg viewBox="0 0 244.43135999999998 70.87403415746606" height="70.87403415746606" width="244.43135999999998"><g><svg viewBox="0 0 244.43135999999998 70.87403415746606" height="70.87403415746606" width="244.43135999999998"><g><svg viewBox="0 0 244.43135999999998 70.87403415746606" height="70.87403415746606" width="244.43135999999998"><g><svg viewBox="0 0 244.43135999999998 70.87403415746606" height="70.87403415746606" width="244.43135999999998"><g id="textblocktransform"><svg viewBox="0 0 244.43135999999998 70.87403415746606" height="70.87403415746606" width="244.43135999999998" id="textblock"><g><svg viewBox="0 0 244.43135999999998 70.87403415746606" height="70.87403415746606" width="244.43135999999998"><g transform="matrix(1,0,0,1,0,0)"><svg width="244.43135999999998" viewBox="3.3 -38.38 134.86999999999998 39.11000000000001" height="70.87403415746606" data-palette-color="#636365"><path d="M25.66-22.44L25.66-22.44Q26.56-23.54 28.45-24.57 30.35-25.61 33.79-25.61L33.79-25.61Q38.67-25.61 40.84-23.1 43.02-20.58 43.02-15.55L43.02-15.55 43.02-1.29Q43.02-0.56 42.71-0.28 42.41 0 41.67 0L41.67 0 36.65 0Q35.91 0 35.61-0.28 35.3-0.56 35.3-1.29L35.3-1.29 35.3-14.28Q35.3-17.02 34.3-18.2 33.3-19.38 31.3-19.38L31.3-19.38Q29.52-19.38 28.48-18.59 27.44-17.8 27-16.46L27-16.46 27-1.29Q27-0.56 26.7-0.28 26.39 0 25.66 0L25.66 0 20.63 0Q19.9 0 19.59-0.28 19.29-0.56 19.29-1.29L19.29-1.29 19.29-14.28Q19.29-16.94 18.19-18.16 17.09-19.38 15.31-19.38L15.31-19.38Q13.62-19.38 12.6-18.55 11.57-17.72 11.01-16.46L11.01-16.46 11.01-1.29Q11.01-0.56 10.71-0.28 10.4 0 9.67 0L9.67 0 4.64 0Q3.91 0 3.6-0.28 3.3-0.56 3.3-1.29L3.3-1.29 3.3-21.75Q3.3-22.34 3.54-22.66L3.54-22.66Q4.05-23.34 4.77-24.05 5.49-24.76 6.54-25.56L6.54-25.56Q6.86-25.81 7.15-25.81L7.15-25.81Q7.42-25.81 7.76-25.56L7.76-25.56Q8.79-24.76 9.52-24.02 10.25-23.29 10.82-22.51L10.82-22.51 10.94-22.51Q11.77-23.56 13.53-24.58 15.28-25.61 18.55-25.61L18.55-25.61Q21.68-25.61 23.19-24.67 24.71-23.73 25.66-22.44ZM61.86 0.61L61.86 0.61Q57.74 0.61 54.69-0.72 51.63-2.05 49.95-4.86 48.26-7.67 48.26-12.11L48.26-12.11Q48.26-18.77 51.68-22.19 55.1-25.61 60.76-25.61L60.76-25.61Q64.45-25.61 67-24.29 69.55-22.97 70.88-20.65 72.21-18.33 72.21-15.36L72.21-15.36Q72.21-12.45 70.73-11.3 69.24-10.16 66.38-10.16L66.38-10.16 55.91-10.16Q56.1-7.64 57.75-6.32 59.4-5 62.23-5L62.23-5Q64.48-5 65.83-5.68 67.19-6.35 67.72-6.74L67.72-6.74Q68.19-7.08 68.77-7.06L68.77-7.06Q69.24-7.06 70.1-6.87 70.97-6.69 71.82-6.2L71.82-6.2Q72.43-5.88 72.43-5.32L72.43-5.32Q72.43-5 72.31-4.42L72.31-4.42Q72.24-4.08 72.07-3.43 71.9-2.78 71.63-2.22L71.63-2.22Q71.48-1.95 71.16-1.71L71.16-1.71Q70.68-1.37 69.59-0.81 68.5-0.24 66.62 0.18 64.74 0.61 61.86 0.61ZM55.86-15.16L55.86-15.16 63.82-15.16Q65.06-15.16 65.06-16.31L65.06-16.31Q65.06-18.04 63.97-19.23 62.89-20.41 60.72-20.41L60.72-20.41Q58.35-20.41 57.24-18.9 56.13-17.38 55.86-15.16ZM84.05 0.61L84.05 0.61Q80.46 0.61 78.35-1.4 76.24-3.42 76.24-6.96L76.24-6.96Q76.24-8.79 76.91-10.36 77.58-11.94 79.26-13.15 80.93-14.36 83.94-15.09 86.96-15.82 91.65-15.94L91.65-15.94Q91.65-18.16 90.53-19.14 89.42-20.12 87.2-20.12L87.2-20.12Q85.2-20.12 83.93-19.43 82.66-18.75 82.34-18.51L82.34-18.51Q82-18.21 81.51-18.29L81.51-18.29Q80.85-18.38 80.11-18.63 79.37-18.87 78.51-19.19L78.51-19.19Q78.39-19.24 78.24-19.35 78.1-19.46 78.07-19.68L78.07-19.68Q78.07-19.8 78.1-19.98 78.12-20.17 78.22-20.65L78.22-20.65Q78.32-21.14 78.51-21.86 78.71-22.58 78.88-22.97L78.88-22.97Q79.1-23.39 79.61-23.75L79.61-23.75Q80.02-24.1 82.12-24.85 84.22-25.61 88.2-25.61L88.2-25.61Q99.16-25.61 99.16-14.94L99.16-14.94 99.16-1.12Q99.16-0.66 98.91-0.33 98.65 0 98.04 0L98.04 0 94.38 0Q93.99 0 93.68-0.11 93.38-0.22 93.11-0.54L93.11-0.54 91.6-2.49 91.43-2.49Q90.3-0.85 88.41-0.12 86.52 0.61 84.05 0.61ZM86.74-5.05L86.74-5.05Q88.98-5.05 90.13-6.2 91.28-7.35 91.6-8.57L91.6-8.57 91.6-11.28Q88.2-11.28 86.51-10.75 84.81-10.23 84.25-9.39 83.69-8.54 83.69-7.57L83.69-7.57Q83.69-6.15 84.57-5.6 85.44-5.05 86.74-5.05ZM114.06-1.83L108.95 0.51Q108.44 0.73 108.22 0.73L108.22 0.73Q108 0.73 107.76 0.56L107.76 0.56Q107.19 0.17 106.47-1.35 105.75-2.88 105.75-6.05L105.75-6.05 105.75-34.33Q105.75-34.91 106-35.23L106-35.23Q107.02-36.57 109-38.13L109-38.13Q109.34-38.38 109.61-38.38L109.61-38.38Q109.93-38.38 110.22-38.13L110.22-38.13Q111.27-37.33 111.99-36.62 112.71-35.91 113.22-35.23L113.22-35.23Q113.47-34.91 113.47-34.33L113.47-34.33 113.47-7.54Q113.47-5.93 113.74-4.8 114.01-3.66 114.37-2.98L114.37-2.98Q114.79-2.17 114.06-1.83L114.06-1.83ZM127.11 0.61L127.11 0.61Q124.5 0.61 122.78 0.17 121.06-0.27 120.02-0.89 118.98-1.51 118.4-2.03L118.4-2.03Q117.96-2.44 118.3-2.95L118.3-2.95 120.79-6.64Q121.33-7.42 122.01-6.74L122.01-6.74Q122.72-6.05 123.93-5.41 125.14-4.76 126.94-4.76L126.94-4.76Q128.55-4.76 129.59-5.31 130.63-5.86 130.63-6.91L130.63-6.91Q130.63-7.64 130.17-8.11 129.7-8.57 128.53-9.06 127.36-9.55 125.26-10.3L125.26-10.3Q122.16-11.43 120.57-13.01 118.98-14.6 118.98-17.65L118.98-17.65Q118.98-20.46 120.53-22.22 122.08-23.97 124.51-24.79 126.94-25.61 129.58-25.61L129.58-25.61Q132.92-25.61 134.28-24.99 135.63-24.37 136.03-24.02L136.03-24.02Q136.39-23.71 136.54-23.29L136.54-23.29Q136.86-22.34 137.03-20.78L137.03-20.78Q137.12-19.87 136.56-19.58L136.56-19.58Q136.27-19.41 135.63-19.21 135-19.02 134.37-18.87 133.73-18.73 133.41-18.73L133.41-18.73Q133.32-18.73 133.21-18.79 133.1-18.85 132.83-19.09L132.83-19.09Q132.51-19.41 131.74-19.82 130.97-20.24 129.63-20.24L129.63-20.24Q128.31-20.24 127.42-19.81 126.53-19.38 126.53-18.31L126.53-18.31Q126.53-17.14 127.66-16.55 128.8-15.97 131.41-15.04L131.41-15.04Q133.46-14.33 134.99-13.49 136.51-12.65 137.34-11.29 138.17-9.94 138.17-7.64L138.17-7.64Q138.17-4.66 136.55-2.84 134.93-1.03 132.4-0.21 129.87 0.61 127.11 0.61Z" opacity="1" transform="matrix(1,0,0,1,0,0)" fill="#000000" class="wordmark-text-0" data-fill-palette-color="primary" id="text-0"></path></svg></g></svg></g></svg></g></svg></g></svg></g></svg></g></svg></g><g><path d="M0 123.6c0-68.262 55.338-123.6 123.6-123.6 52.839 0 97.933 33.156 115.614 79.797l-3.425 0c-17.52-44.839-61.145-76.601-112.189-76.601-66.497 0-120.404 53.907-120.404 120.404 0 66.497 53.907 120.404 120.404 120.404 51.044 0 94.669-31.763 112.189-76.601h3.425c-17.681 46.641-62.775 79.797-115.614 79.797-68.262 0-123.6-55.338-123.6-123.6z" fill="#000000" stroke="transparent" data-fill-palette-color="tertiary"></path></g></svg></g><defs></defs></svg><rect width="395.52" height="247.2" fill="none" stroke="none" visibility="hidden"></rect></g></svg></g></svg>